<?xml version="1.0" encoding="UTF-8"?>
<svg version="1.1" viewBox="0 0 115.29 90.024246" xmlns="http://www.w3.org/2000/svg" xmlns:cc="http://creativecommons.org/ns#" xmlns:dc="http://purl.org/dc/elements/1.1/" xmlns:rdf="http://www.w3.org/1999/02/22-rdf-syntax-ns#">
<metadata>
<rdf:RDF>
<cc:Work rdf:about="">
<dc:format>image/svg+xml</dc:format>
<dc:type rdf:resource="http://purl.org/dc/dcmitype/StillImage"/>
<dc:title/>
</cc:Work>
</rdf:RDF>
</metadata>
<g transform="translate(-319.5 -618.78)">
<g transform="translate(267.57 590.6)">
<path d="m161.53 68.814-19.139-5.255 13.238-18.602c0.859-1.207 0.814-2.834-0.116-3.987-0.639-0.803-2.741-2.618-3.254-3.254-0.917-1.153-2.486-1.55-3.868-0.975l-27.231 11.548-6.957-15.102c-0.463-1.007-1.461-1.493-2.508-1.634l-0.746-1.62c-1.078-2.344-4.926-2.344-6.005 0l-8.745 18.979-28.697-12.172c-1.353-0.575-2.938-0.181-3.868 0.975-0.927 1.153-0.975 2.78-0.116 3.987l14.644 20.578-23.802 6.534c-1.437 0.394-2.431 1.698-2.431 3.186s4.311 6.064 5.685 6.44l19.142 5.258-13.238 18.596c-0.859 1.207-0.81 2.834 0.116 3.99 0.644 0.803 2.743 2.617 3.254 3.254 0.927 1.156 2.515 1.556 3.868 0.968l27.229-11.542 6.959 15.1c0.476 1.037 1.475 1.651 2.585 1.802l0.669 1.452c0.539 1.175 5.466 1.175 6.005 0l8.742-18.976 28.7 12.164c1.382 0.594 2.951 0.174 3.868-0.968 0.93-1.156 0.975-2.783 0.116-3.99l-14.644-20.571 23.806-6.537c1.433-0.394 2.428-1.698 2.428-3.186s-4.311-6.063-5.689-6.44zm-57.412 23.854c-0.489-1.065-1.5-1.657-2.586-1.804l-0.668-1.45c-0.555-1.207-1.75-1.924-3.002-1.924-0.433 0-0.868 0.084-1.291 0.265l-12.91 5.471 5.885-8.267c0.626-0.878 0.784-2.008 0.423-3.028-0.365-1.017-1.198-1.792-2.24-2.076l-0.92-0.253c-0.017-0.311 0.013-0.624-0.094-0.926-0.365-1.017-1.198-1.792-2.24-2.076l-9.196-2.526 12.45-3.418c1.04-0.284 1.876-1.059 2.24-2.076 0.362-1.017 0.203-2.147-0.423-3.028l-10.609-14.907 20.887 8.858c1.646 0.694 3.548-0.036 4.294-1.663l6.206-13.469 4.706 10.215c0.496 1.077 1.509 1.709 2.605 1.846l0.649 1.408c0.749 1.627 2.654 2.357 4.294 1.663l12.91-5.475-5.885 8.271c-0.626 0.881-0.781 2.011-0.42 3.028 0.362 1.017 1.194 1.792 2.24 2.076l0.918 0.252c0.018 0.311-0.011 0.625 0.095 0.926 0.362 1.017 1.194 1.792 2.24 2.076l9.194 2.524-12.455 3.42c-1.04 0.284-1.872 1.059-2.234 2.076-0.362 1.02-0.207 2.15 0.42 3.028l10.608 14.902-20.887-8.852c-1.64-0.704-3.545 0.032-4.294 1.659l-6.206 13.469-4.704-10.215z" fill="#73241f"/>
<polygon points="149.68 39.785 132.3 64.215 160.66 72 132.3 79.785 149.68 104.22 118.03 90.794 107.95 112.68 97.863 90.794 66.212 104.22 83.599 79.785 55.238 72 83.599 64.215 66.212 39.785 97.863 53.206 107.95 31.315 118.03 53.206" fill="#efc13b"/>
</g>
</g>
</svg>
