<?xml version="1.0" encoding="UTF-8"?>
<svg version="1.1" viewBox="0 0 99.819 73.168999" xmlns="http://www.w3.org/2000/svg" xmlns:cc="http://creativecommons.org/ns#" xmlns:dc="http://purl.org/dc/elements/1.1/" xmlns:rdf="http://www.w3.org/1999/02/22-rdf-syntax-ns#">
<metadata>
<rdf:RDF>
<cc:Work rdf:about="">
<dc:format>image/svg+xml</dc:format>
<dc:type rdf:resource="http://purl.org/dc/dcmitype/StillImage"/>
<dc:title/>
</cc:Work>
</rdf:RDF>
</metadata>
<g transform="translate(-347.23 -418.63)">
<g transform="translate(289.09 379.74)">
<path d="m108.05 112.06c-27.521 0-49.913-15.231-49.913-33.952 0-18.718 22.392-33.949 49.913-33.949s49.906 15.231 49.906 33.949c0 18.721-22.385 33.952-49.906 33.952zm0-59.966c-22.753 0-41.978 11.912-41.978 26.014 0 14.104 19.225 26.017 41.978 26.017 23.144 0 41.978-11.67 41.978-26.017-1e-3 -14.101-19.228-26.014-41.978-26.014z" fill="#4a3952"/>
<path d="m108.05 95.205c-18.298 0-32.099-7.348-32.099-17.094s13.801-17.094 32.099-17.094c18.301 0 32.099 7.348 32.099 17.094s-13.798 17.094-32.099 17.094zm0-27.576c-14.589 0-25.488 5.533-25.488 10.482s10.899 10.482 25.488 10.482 25.488-5.533 25.488-10.482-10.9-10.482-25.488-10.482z" fill="#4a3952"/>
<polygon points="58.139 72.843 58.139 78.111 60.45 85.791 62.31 79.49 62.723 71.432" fill="#4a3952"/>
<polygon points="152.6 83.312 157.96 78.111 157.96 72.843 152.19 75.048" fill="#4a3952"/>
<polygon points="139.27 71.225 135.97 74.531 138.24 81.349 140.15 78.111 140.15 72.843" fill="#4a3952"/>
<polygon points="78.322 70.915 75.953 72.843 75.953 78.111 78.322 83.209 78.839 78.663" fill="#4a3952"/>
<path d="m108.05 106.8c-27.521 0-49.913-15.231-49.913-33.952 0-18.718 22.392-33.949 49.913-33.949s49.906 15.231 49.906 33.949c0 18.721-22.385 33.952-49.906 33.952zm0-59.966c-22.753 0-41.978 11.912-41.978 26.014 0 14.104 19.225 26.017 41.978 26.017 23.144 0 41.978-11.67 41.978-26.017-1e-3 -14.102-19.228-26.014-41.978-26.014z" fill="#c7dcf3"/>
<path d="m108.05 89.936c-18.298 0-32.099-7.348-32.099-17.094s13.801-17.094 32.099-17.094c18.301 0 32.099 7.348 32.099 17.094s-13.798 17.094-32.099 17.094zm0-27.576c-14.589 0-25.488 5.533-25.488 10.482s10.899 10.482 25.488 10.482 25.488-5.533 25.488-10.482-10.9-10.482-25.488-10.482z" fill="#c7dcf3"/>
<polygon points="96.79 76.563 103.3 78.128 103.51 72.775 96.79 72.843" fill="#4a3952"/>
<polygon points="119.31 72.843 114.97 72.775 111.15 75.667 111.15 79.298 114.04 77.611 119.31 76.563" fill="#4a3952"/>
<ellipse cx="108.05" cy="76.563" rx="11.262" ry="3.393" d="m 119.313,76.563004 c 0,1.873902 -5.04217,3.392999 -11.262,3.392999 -6.21983,0 -11.261998,-1.519097 -11.261998,-3.392999 0,-1.873903 5.042168,-3.393 11.261998,-3.393 6.21983,0 11.262,1.519097 11.262,3.393 z" fill="#4a3952"/>
<ellipse cx="108.05" cy="72.844" rx="11.262" ry="3.393" d="m 119.313,72.844002 c 0,1.873902 -5.04217,3.393 -11.262,3.393 -6.21983,0 -11.261998,-1.519098 -11.261998,-3.393 0,-1.873902 5.042168,-3.393 11.261998,-3.393 6.21983,0 11.262,1.519098 11.262,3.393 z" fill="#c7dcf3"/>
</g>
</g>
</svg>
