<?xml version="1.0" encoding="UTF-8"?>
<svg version="1.1" viewBox="0 0 99.822998 74.098999" xmlns="http://www.w3.org/2000/svg" xmlns:cc="http://creativecommons.org/ns#" xmlns:dc="http://purl.org/dc/elements/1.1/" xmlns:rdf="http://www.w3.org/1999/02/22-rdf-syntax-ns#">
<metadata>
<rdf:RDF>
<cc:Work rdf:about="">
<dc:format>image/svg+xml</dc:format>
<dc:type rdf:resource="http://purl.org/dc/dcmitype/StillImage"/>
<dc:title/>
</cc:Work>
</rdf:RDF>
</metadata>
<g transform="translate(-510.09 -309.6)">
<g transform="translate(451.85 271.48)">
<polygon points="101.13 57.377 92.289 58.952 92.289 63.888 95.242 68.224 105.37 66.675" fill="#525252"/>
<path d="m114.75 48.038c-3.402-0.134-6.632 0-9.764 0.27l3.709 2.458c-9.06 0-16.404 5.875-16.404 13.122s7.344 13.121 16.404 13.121c9.059 0 16.403 5.875 16.403 13.121 0 7.247-7.344 13.121-16.403 13.121 0 0-4.023 0.335-8.143 0.646-4.325 0.326-8.269-1.876-10.134-2.25-5.733-1.152-13.633-2.881-21.544-11.818 2.182 2.76 4.621 5.179 6.517 7.176 5.888 6.198 17.975 10.227 17.975 10.227s10.847 4.029 31.612-0.62 26.963-20.764 28.822-31.612c1.859-10.846-15.496-26.032-39.05-26.962z" fill="#525252"/>
<path d="m114.75 43.102c-3.402-0.134-6.632 0-9.764 0.27l3.709 2.458c-9.06 0-16.404 5.875-16.404 13.122s7.344 13.121 16.404 13.121c9.059 0 16.403 5.875 16.403 13.121s-7.344 13.121-16.403 13.121c0 0-4.023 0.335-8.143 0.646-4.325 0.326-8.269-1.876-10.134-2.25-5.733-1.152-13.633-2.881-21.544-11.818 2.182 2.76 4.621 5.179 6.517 7.176 5.888 6.198 17.975 10.227 17.975 10.227s10.847 4.029 31.612-0.62 26.963-20.764 28.822-31.612c1.859-10.846-15.496-26.032-39.05-26.962z" fill="#fff"/>
<path d="m108.16 43.409c-22.92 0-42.286 11.912-42.286 26.014 0 1.048 0.14 2.079 0.346 3.1 2.585-12.702 20.724-22.915 41.94-22.915s39.358 10.213 41.943 22.915c0.207-1.02 0.346-2.051 0.346-3.1 0-14.102-19.369-26.014-42.289-26.014z" fill="#525252"/>
<path d="m108.16 106.02c-25.983 0-47.371-13.581-49.682-30.853-0.137 1.022-0.231 2.053-0.231 3.099 0 18.721 22.392 33.952 49.913 33.952 27.525 0 49.91-15.231 49.91-33.952 0-1.046-0.094-2.077-0.231-3.099-2.312 17.273-23.693 30.853-49.679 30.853z" fill="#525252"/>
<polygon points="58.242 78.268 61.771 81.551 62.184 71.943 58.242 72.069" fill="#525252"/>
<polygon points="155.47 72.667 155.37 80.828 156.6 83.1 158.06 78.268 158.06 72.069" fill="#525252"/>
<path d="m108.16 106.02c-27.521 0-49.913-15.231-49.913-33.952 0-18.718 22.392-33.949 49.913-33.949 27.525 0 49.91 15.231 49.91 33.949 0 18.721-22.385 33.952-49.91 33.952zm0-59.965c-22.753 0-41.978 11.912-41.978 26.014 0 14.104 19.225 26.017 41.978 26.017s41.981-11.912 41.981-26.017c0-14.102-19.228-26.014-41.981-26.014z" fill="#fff"/>
</g>
</g>
</svg>
